<svg width="285" height="93" viewBox="0 0 285 93" fill="none" xmlns="http://www.w3.org/2000/svg">
<path d="M32.8017 52.1092C32.3698 54.2414 31.8453 56.3427 31.5367 58.4748C30.8888 63.3263 29.8706 68.116 25.9213 71.3915C23.8232 73.122 21.2623 74.2653 18.8557 75.6249C17.5289 76.3666 16.1405 77.0773 14.7521 77.6644C14.2276 77.8807 13.3019 77.9734 12.9934 77.6644C11.4507 76.0267 10.0622 74.2344 8.58125 72.5039C7.84075 71.6387 8.18014 71.4224 9.10577 71.0516C11.2964 70.1863 13.5796 69.3829 15.5543 68.0851C18.9482 65.8602 20.3675 62.2757 21.324 58.4439C21.9102 56.0645 22.373 53.6234 23.2987 51.3676C25.7979 45.4037 29.9015 41.0775 36.2883 39.2234C38.2321 38.6672 40.1142 38.8835 41.842 39.6252C46.6861 41.7264 50.3269 40.4595 54.122 36.0097C54.6773 35.3608 55.2019 34.681 55.603 33.8776C53.8443 34.7737 52.1164 35.6698 50.3577 36.5351C48.0437 37.7093 45.9148 37.3694 44.0018 35.6389C43.8167 35.4535 43.6315 35.299 43.4156 35.1445C40.9781 33.2904 41.0707 33.6304 43.1379 31.0965C44.1252 29.9222 45.1743 28.7789 46.285 27.7282C46.5318 27.481 47.3958 27.4501 47.6117 27.6973C51.4068 31.8072 56.2817 31.4982 60.5705 28.8407C60.9716 28.5935 61.3418 28.3154 61.7121 28.0682C63.6559 26.6776 63.6559 26.6776 65.1986 28.6553C66.0008 29.675 66.7722 30.6947 67.5744 31.6836C68.3766 32.7033 68.2223 33.3213 66.9881 33.8467C64.8592 34.681 62.792 35.6698 60.2311 36.7823C62.6994 38.5745 64.8592 40.1196 67.235 41.8191C67.235 40.305 67.1115 39.1307 67.2967 37.9874C67.3892 37.3694 67.9755 36.8441 68.3457 36.2569C68.8085 36.5969 69.3639 36.8441 69.7033 37.2458C71.0609 38.9144 72.4185 40.5831 73.6835 42.3445C75.0411 44.1985 74.8868 45.1874 72.8813 45.8672C72.5419 45.9908 71.7705 46.5779 71.6779 46.9487C71.4928 47.8139 73.6835 48.9572 71.0608 49.5753C71.2768 50.4714 72.5727 51.3058 71.2769 52.2328C71.1534 52.3255 71.246 52.8817 71.3694 53.1598C71.6471 53.7779 72.0482 54.3032 72.295 54.9212C73.0664 56.7444 72.2642 58.3512 70.3204 58.2276C66.803 58.0422 63.2548 57.7641 59.8608 56.9298C57.2382 56.2809 54.8316 54.7976 52.3324 53.6234C51.8388 53.4071 51.4376 53.0362 50.7897 52.6036C51.2834 55.1684 52.6718 56.9607 54.3379 58.4439C55.8498 59.8036 56.6211 61.3486 57.0531 63.3572C58.133 68.425 60.9407 72.473 64.8592 75.8722C67.9138 78.4987 71.3077 80.1983 75.1336 81.1253C74.0229 85.8532 55.5104 93.5785 48.4448 92.2497C48.4448 90.4884 48.3831 88.6961 48.5065 86.9347C48.5374 86.5639 49.1544 86.1004 49.5864 85.8532C52.5793 84.1227 53.2889 80.1983 51.0057 77.2009C50.6663 78.1897 50.4195 79.1786 50.0184 80.1056C48.9076 82.7013 47.0564 83.5974 44.3412 82.8867C42.8602 82.485 41.4101 82.0215 39.6822 81.527C43.5698 77.8807 44.4646 73.6782 43.0145 69.1666C42.1197 71.7005 41.5643 74.6052 40.145 77.0155C38.7257 79.4567 36.4425 81.4343 34.4679 83.6901C37.4607 84.5245 40.6078 85.3897 43.8167 86.2549C43.8167 87.9236 43.7858 89.5922 43.8167 91.23C43.8475 92.2497 43.3847 92.5896 42.3974 92.4969C32.956 91.7553 24.6871 88.2017 17.313 82.3305C16.7885 81.9288 16.4491 81.3107 15.8628 80.6309C18.0535 80.2601 19.9356 80.0438 21.756 79.6112C27.6491 78.1897 32.0921 74.976 33.4497 68.7649C34.0051 66.2001 33.9434 63.4808 33.8816 60.8233C33.8199 57.9495 33.4497 55.1066 33.2337 52.2328C33.1103 52.2019 32.956 52.171 32.8017 52.1092ZM51.0983 40.3668C50.6354 41.4174 50.2035 42.4372 49.7098 43.4878C48.7533 45.5891 48.3214 45.929 46.0999 45.7436C44.1869 45.5891 43.1379 46.6706 42.3665 48.123C41.5335 49.6989 41.3175 51.3367 42.4899 53.0362C43.1379 49.6371 43.6624 49.359 47.0255 49.2972C48.0437 49.2663 49.3704 48.432 50.0184 47.5667C51.5611 45.4964 51.6845 42.9934 51.0983 40.3668Z" fill="white"/>
<path d="M39.6987 8.9315C50.4302 9.67677 57.7696 11.5399 60.8225 14.3968C60.2674 14.6452 59.774 14.8316 59.3114 15.0489C55.9501 16.5395 52.5889 17.999 49.2584 19.6137C48.4566 20.0174 47.8707 20.1416 47.0072 19.7379C40.3155 16.4463 33.5312 16.6016 26.6544 19.3342C24.5883 20.1416 22.3063 20.39 20.1477 20.949C16.1697 21.9737 12.685 23.9611 9.66294 26.818C7.87436 28.4949 6.64086 28.557 4.82144 26.9112C4.5439 26.6627 4.5439 25.8554 4.72893 25.4517C6.67169 21.1974 9.32373 17.5021 12.5 14.1794C19.0992 7.22358 27.0245 2.68985 36.3991 0.826676C38.1877 0.45404 40.038 0.298776 41.8574 0.050352C43.2759 -0.167019 44.0468 0.298775 43.8001 1.85142C43.8001 1.94458 43.8001 2.06879 43.8001 2.16195C43.8001 7.37885 43.1217 7.19253 39.6987 8.9315Z" fill="white"/>
<path d="M90.2982 31.8929C90.856 35.7031 91.6307 39.2655 91.8786 42.8899C92.2814 48.7755 91.6927 54.5993 90.0193 60.2991C88.2529 66.2157 85.216 71.4199 81.0945 75.9736C80.4127 76.717 79.545 77.3056 78.6773 77.8941C78.3674 78.111 77.8716 78.2659 77.5617 78.1729C75.6094 77.5534 73.6571 76.9029 71.7358 76.1904C70.6512 75.7877 70.8061 75.2921 71.6119 74.5796C78.8013 68.1983 83.4806 60.423 84.5342 50.7271C84.8441 47.8772 84.8441 44.9963 84.9991 41.9296C79.7929 41.6198 77.1279 37.9955 74.3079 34.588C71.271 30.9636 68.2031 27.3393 64.2985 24.5823C64.0816 24.4274 63.8646 24.3035 63.8027 24.2725C62.2532 25.5116 60.8897 26.8746 59.2783 27.8349C56.4273 29.5696 53.4214 29.9414 50.4154 28.0518C48.6491 26.9366 48.6181 26.0382 50.3225 24.8611C55.0328 21.6085 60.3629 19.7189 65.693 17.9222C66.0339 17.7983 66.5607 18.0461 66.9015 18.2629C71.209 21.1748 74.4938 25.1399 77.9026 29.012C79.0492 30.3131 80.4127 31.4592 81.7762 32.4815C83.7595 33.9684 85.8977 33.8135 88.036 32.7913C88.6248 32.5125 89.2755 32.2956 90.2982 31.8929Z" fill="white"/>
<path d="M20.4445 25.5558C18.9256 28.7013 17.0656 31.2918 16.3836 34.1906C15.6706 37.182 14.6476 38.8473 11.4236 39.464C8.38557 40.05 7.02157 41.6844 6.43257 43.6581C9.28456 43.288 12.1986 42.918 15.2056 42.5479C15.4846 44.2749 15.7016 45.6009 15.8876 46.8962C16.0426 47.8213 15.6086 48.0989 14.6476 48.3764C12.7566 48.9007 10.8966 49.6717 9.12957 50.5351C8.04457 51.0902 7.26957 52.0771 7.30057 53.7424C7.95157 53.4648 8.41657 53.1873 8.94357 53.0639C11.0826 52.6322 13.2216 52.2313 15.3606 51.9537C16.2286 51.8304 17.2826 52.0771 17.1896 53.2489C17.1586 53.8349 16.6316 54.575 16.1046 54.9451C14.5856 56.0553 12.9426 57.0113 11.3306 58.0598C9.71856 59.1083 8.69557 60.5886 8.10657 62.6856C10.5556 61.9763 12.7876 61.2979 15.1126 60.6194C14.9266 64.7209 11.1446 67.7123 6.83557 66.7871C4.94457 66.3862 3.95257 64.906 3.23957 63.2715C0.201577 56.302 -0.542421 48.9932 0.356577 41.4686C0.666577 39.0015 1.13158 36.5344 1.62758 34.0981C2.03057 32.1244 2.40257 32.0011 4.16957 32.8337C5.59557 33.5122 6.74257 33.6355 7.95157 32.3095C10.3386 29.719 13.2216 27.7453 16.5386 26.5735C17.9026 26.1417 19.1736 25.895 20.4445 25.5558Z" fill="white"/>
<path d="M48.5931 0C52.8537 0.215523 56.8033 0.862093 60.6285 2.12444C72.0729 5.91149 80.874 12.9314 86.845 23.3689C86.8761 23.3996 86.9072 23.4612 86.9072 23.492C87.1249 24.5388 88.6488 25.4625 87.467 26.6325C85.7876 28.2951 83.9217 28.6338 82.3667 27.2483C80.5319 25.6165 78.9769 23.7075 77.3598 21.8602C70.0204 13.4548 60.9394 8.15909 49.7749 6.49648C48.9041 6.37333 48.4998 6.09622 48.562 5.14176C48.6242 3.50995 48.5931 1.87813 48.5931 0Z" fill="white"/>
<path d="M43.9557 23.0373C43.3731 23.6636 43.0359 24.102 42.6373 24.4777C39.7552 26.9827 37.609 30.02 36.076 33.5582C35.8307 34.1532 35.2175 34.8107 34.635 34.9673C28.4722 36.7834 24.1491 40.7287 21.2977 46.5215C21.2364 46.6781 21.0218 46.772 20.7152 47.0225C19.7647 43.3903 19.6421 39.9146 20.5619 36.439C22.4321 29.425 26.418 24.2585 33.4085 22.0354C36.9651 20.8768 40.3991 21.6283 43.9557 23.0373Z" fill="white"/>
<path d="M215.537 41.7409C217.377 38.3164 219.012 35.352 220.597 32.3875C222.59 28.6053 222.59 28.6053 227.241 29.0142C227.241 40.5653 227.241 52.1676 227.241 63.821C226.781 63.9232 226.475 64.0255 226.168 64.0255C221.875 64.281 221.772 64.2299 221.772 59.8343C221.772 54.3654 221.772 48.8454 221.772 42.712C219.983 46.1876 218.501 49.1009 216.917 51.9121C216.61 52.4743 215.894 52.8832 215.383 53.3432C214.974 52.8832 214.463 52.4232 214.157 51.9121C212.674 49.1521 211.294 46.392 209.506 42.9676C209.506 48.5898 209.506 53.5476 209.506 58.4543C209.506 58.7099 209.506 58.9654 209.506 59.221C209.608 64.4344 209.301 64.6899 203.883 63.7699C203.883 52.2699 203.883 40.7187 203.883 29.2186C207.206 27.7875 208.177 28.0942 209.761 31.0586C211.55 34.4831 213.441 37.9076 215.537 41.7409Z" fill="white"/>
<path d="M188.039 49.6633C190.441 54.3656 192.792 58.9656 195.246 63.719C189.623 65.0479 188.806 64.6901 186.812 60.2434C185.432 57.2278 184.103 54.2123 182.57 51.2989C182.212 50.6345 181.292 50.2256 180.628 49.7145C180.372 49.8678 180.168 50.0211 179.912 50.1745C179.912 54.7234 179.912 59.2212 179.912 64.0768C177.817 64.179 176.079 64.2812 174.085 64.3323C174.085 52.3723 174.085 40.6166 174.085 28.2477C178.583 28.5543 182.928 28.5032 187.119 29.1677C190.799 29.781 193.917 33.7677 194.326 37.4988C194.786 42.0478 194.07 46.1367 189.674 48.6922C189.112 48.9989 188.652 49.3056 188.039 49.6633ZM179.708 44.6544C183.03 44.8078 186.25 45.6256 188.141 42.15C189.266 40.1566 189.266 38.0099 187.937 36.1188C185.841 33.0521 182.723 34.1255 179.657 34.1255C179.708 37.6522 179.708 41.0255 179.708 44.6544Z" fill="white"/>
<path d="M134.321 64.0256C132.583 64.0256 131.05 64.0256 129.107 64.0256C129.107 58.9144 129.107 53.8033 129.107 48.5388C125.581 48.5388 122.463 48.5388 119.038 48.5388C119.038 52.73 118.885 56.9722 119.09 61.1633C119.243 63.6167 118.323 64.1789 116.074 64.1278C113.978 64.1278 113.212 63.4122 113.314 61.3167C113.467 58.8633 113.416 56.41 113.314 53.9055C113.212 50.9411 114.387 47.6699 110.401 45.4721C113.774 44.4499 113.314 42.3032 113.314 40.3099C113.314 36.5788 113.314 32.8476 113.314 28.7076C114.847 28.7076 116.278 28.5543 117.607 28.8098C118.118 28.9121 118.783 29.8832 118.834 30.4965C118.987 33.0521 118.834 35.6076 118.885 38.1632C118.987 43.9899 118.272 42.9677 123.996 43.121C125.53 43.1721 127.012 43.121 128.852 43.121C128.852 38.3165 128.852 33.6654 128.852 28.7587C130.794 28.7587 132.43 28.7587 134.321 28.7587C134.321 40.4121 134.321 52.1166 134.321 64.0256Z" fill="white"/>
<path d="M150.83 58.3521C155.634 58.3521 160.183 58.3521 164.834 58.3521C164.834 60.3966 164.834 62.0833 164.834 63.9233C158.701 63.9233 152.619 63.9744 146.536 63.8211C146.076 63.8211 145.31 62.5944 145.31 61.8788C145.207 59.0166 145.361 56.1032 145.31 53.241C145.259 50.5321 146.025 47.5677 143.93 46.1876C144.492 44.2454 145.207 42.8654 145.31 41.4343C145.463 37.2943 145.361 33.1031 145.361 28.7587C151.852 28.7587 158.19 28.7587 164.579 28.7587C164.579 30.4453 164.579 32.0298 164.579 33.9209C159.979 33.9209 155.532 33.9209 150.932 33.9209C150.932 37.0898 150.932 39.9009 150.932 43.0698C154.203 43.0698 157.27 43.0698 160.388 43.0698C160.49 43.3254 160.592 43.581 160.694 43.8365C158.701 45.0632 156.81 46.7499 154.663 47.4654C151.239 48.5899 150.37 50.6854 150.83 53.9055C150.983 55.2344 150.83 56.6144 150.83 58.3521Z" fill="white"/>
<path d="M236.492 46.1876C237.157 44.3475 237.872 43.2231 237.923 42.0986C238.128 37.8564 238.077 33.6142 238.128 29.3719C238.128 29.2186 238.281 29.0652 238.383 28.8097C244.312 28.8097 250.292 28.8097 256.426 28.8097C256.426 30.5986 256.426 32.1319 256.426 33.9719C252.081 33.9719 247.89 33.9719 243.648 33.9719C243.648 37.1408 243.648 40.0542 243.648 43.2231C247.021 43.2231 250.088 43.2231 253.206 43.2231C253.308 43.4786 253.41 43.7853 253.564 44.0409C250.957 45.5742 248.401 47.312 245.641 48.5387C243.903 49.3054 243.546 50.3276 243.495 52.0142C243.392 58.5054 243.341 58.5054 249.628 58.4032C251.57 58.3521 253.512 58.2498 255.455 58.3521C257.959 58.4543 257.039 60.4987 257.192 61.8276C257.346 63.0543 257.192 64.1788 255.404 64.1276C249.73 64.0765 244.057 64.0765 238.026 64.0765C238.026 60.7543 238.128 57.5343 238.026 54.3654C237.872 51.3498 239.201 48.0276 236.492 46.1876Z" fill="white"/>
<path d="M263.479 57.9431C264.859 56.8698 266.035 55.9497 267.261 54.9786C268.795 56.0009 270.124 57.1253 271.708 57.9431C274.417 59.272 277.637 58.3009 278.761 56.0009C279.937 53.5986 278.966 50.992 276.104 49.4586C274.57 48.5897 272.832 48.0275 271.248 47.3119C265.524 44.7052 263.326 39.8497 265.319 34.483C267.21 29.423 272.73 26.8674 278.301 28.7074C280.55 29.4741 282.493 31.0074 284.895 32.3363C283.004 33.8696 281.624 34.9941 280.601 35.8119C278.506 34.9941 276.768 33.9719 274.877 33.6141C272.781 33.2052 270.993 34.3296 270.43 36.5274C269.868 38.6741 270.43 40.6163 272.526 41.7408C274.417 42.7119 276.359 43.4786 278.301 44.3986C282.595 46.443 285.099 49.6631 284.997 54.5697C284.844 58.9142 282.39 62.2364 278.455 63.6676C274.008 65.252 268.692 64.0765 265.626 60.652C264.91 59.8342 264.297 59.0164 263.479 57.9431Z" fill="white"/>
</svg>
