<svg width="53" height="53" viewBox="0 0 53 53" fill="none" xmlns="http://www.w3.org/2000/svg">
<path d="M18.7568 29.7972C18.5098 31.0164 18.2098 32.2179 18.0334 33.4372C17.6629 36.2113 17.0807 38.9502 14.8224 40.8232C13.6227 41.8127 12.1583 42.4665 10.7821 43.2439C10.0235 43.668 9.22954 44.0744 8.43561 44.4101C8.13568 44.5338 7.60639 44.5868 7.42996 44.4101C6.54781 43.4736 5.75387 42.4488 4.90701 41.4593C4.48358 40.9645 4.67765 40.8408 5.20694 40.6288C6.45959 40.134 7.76517 39.6746 8.89433 38.9325C10.8351 37.6603 11.6466 35.6105 12.1936 33.4195C12.5288 32.0589 12.7934 30.663 13.3227 29.3731C14.7518 25.9628 17.0983 23.489 20.7504 22.4288C21.8619 22.1108 22.9382 22.2345 23.9262 22.6585C26.6961 23.8601 28.778 23.1356 30.9481 20.5912C31.2657 20.2201 31.5656 19.8314 31.7949 19.372C30.7893 19.8844 29.8013 20.3968 28.7956 20.8916C27.4724 21.563 26.255 21.3686 25.1612 20.3791C25.0553 20.2731 24.9495 20.1848 24.826 20.0964C23.4322 19.0362 23.4851 19.2306 24.6672 17.7817C25.2317 17.1102 25.8316 16.4564 26.4668 15.8557C26.6079 15.7143 27.1019 15.6966 27.2254 15.838C29.3955 18.1881 32.1831 18.0114 34.6355 16.4918C34.8648 16.3504 35.0765 16.1914 35.2883 16.05C36.3998 15.2549 36.3998 15.2549 37.2819 16.3857C37.7406 16.9689 38.1817 17.552 38.6404 18.1174C39.0992 18.7005 39.0109 19.0539 38.3052 19.3543C37.0878 19.8314 35.9058 20.3968 34.4414 21.0329C35.8528 22.0578 37.0878 22.9413 38.4464 23.9131C38.4464 23.0473 38.3758 22.3758 38.4816 21.722C38.5346 21.3686 38.8698 21.0683 39.0815 20.7325C39.3462 20.9269 39.6637 21.0683 39.8578 21.298C40.6341 22.2521 41.4104 23.2063 42.1337 24.2135C42.91 25.2737 42.8218 25.8391 41.675 26.2279C41.481 26.2985 41.0398 26.6342 40.9869 26.8463C40.8811 27.341 42.1337 27.9948 40.6341 28.3482C40.7576 28.8606 41.4986 29.3378 40.7576 29.8678C40.687 29.9209 40.7399 30.2389 40.8105 30.3979C40.9693 30.7513 41.1987 31.0517 41.3398 31.4051C41.7809 32.4476 41.3222 33.3665 40.2107 33.2958C38.1994 33.1898 36.1704 33.0308 34.2297 32.5537C32.73 32.1826 31.3539 31.3344 29.9248 30.663C29.6425 30.5393 29.4131 30.3273 29.0426 30.0799C29.3249 31.5465 30.1189 32.5713 31.0716 33.4195C31.9361 34.197 32.3772 35.0805 32.6242 36.229C33.2417 39.1269 34.8472 41.4416 37.0878 43.3853C38.8345 44.8872 40.7752 45.8591 42.963 46.3892C42.3278 49.0927 31.742 53.5101 27.7018 52.7503C27.7018 51.7431 27.6665 50.7183 27.7371 49.7111C27.7547 49.4991 28.1076 49.234 28.3546 49.0926C30.0659 48.1031 30.4717 45.8591 29.1661 44.1451C28.9721 44.7105 28.8309 45.276 28.6016 45.8061C27.9664 47.2903 26.9078 47.8027 25.3552 47.3963C24.5084 47.1666 23.6792 46.9016 22.6912 46.6189C24.9142 44.5338 25.4258 42.1307 24.5966 39.5509C24.085 40.9999 23.7674 42.6608 22.9558 44.0391C22.1442 45.435 20.8386 46.5659 19.7095 47.8558C21.4209 48.3328 23.2204 48.8276 25.0553 49.3224C25.0553 50.2765 25.0377 51.2307 25.0553 52.1672C25.073 52.7503 24.8083 52.9447 24.2437 52.8917C18.845 52.4676 14.1167 50.4356 9.89998 47.0783C9.60005 46.8486 9.40597 46.4952 9.07076 46.1064C10.3234 45.8944 11.3996 45.7707 12.4406 45.5233C15.8104 44.7105 18.351 42.8729 19.1273 39.3212C19.4448 37.8546 19.4096 36.2997 19.3743 34.7801C19.339 33.1368 19.1273 31.5111 19.0038 29.8678C18.9332 29.8502 18.845 29.8325 18.7568 29.7972ZM29.2191 23.0826C28.9544 23.6834 28.7074 24.2665 28.4251 24.8673C27.8782 26.0688 27.6312 26.2632 26.3609 26.1572C25.267 26.0688 24.6672 26.6873 24.2261 27.5178C23.7497 28.4189 23.6262 29.3554 24.2967 30.3273C24.6672 28.3836 24.9671 28.2246 26.8902 28.1892C27.4724 28.1715 28.2311 27.6945 28.6016 27.1997C29.4837 26.0158 29.5543 24.5846 29.2191 23.0826Z" fill="white"/>
<path d="M22.7006 5.10721C28.8371 5.53337 33.0339 6.59877 34.7796 8.23238C34.4622 8.37444 34.18 8.48098 33.9155 8.60527C31.9935 9.45759 30.0714 10.2922 28.167 11.2155C27.7085 11.4463 27.3735 11.5174 26.8797 11.2865C23.0533 9.40432 19.1739 9.49311 15.2416 11.0557C14.0602 11.5174 12.7553 11.6594 11.5209 11.979C9.24621 12.565 7.25362 13.7014 5.52553 15.3351C4.50279 16.2939 3.79745 16.3294 2.75707 15.3883C2.59837 15.2463 2.59837 14.7846 2.70417 14.5538C3.81508 12.1211 5.33157 10.0081 7.14782 8.10809C10.9214 4.13059 15.4532 1.53811 20.8138 0.472709C21.8366 0.259629 22.8946 0.170846 23.9349 0.0287922C24.7461 -0.0955046 25.1869 0.170846 25.0459 1.05868C25.0459 1.11195 25.0459 1.18298 25.0459 1.23625C25.0459 4.21937 24.6579 4.11283 22.7006 5.10721Z" fill="white"/>
<path d="M51.6343 18.2371C51.9532 20.4158 52.3962 22.4529 52.538 24.5253C52.7684 27.8909 52.4317 31.221 51.4748 34.4803C50.4648 37.8635 48.7282 40.8394 46.3714 43.4432C45.9816 43.8684 45.4854 44.2049 44.9893 44.5415C44.8121 44.6655 44.5285 44.754 44.3513 44.7009C43.235 44.3466 42.1186 43.9746 41.02 43.5672C40.3998 43.337 40.4884 43.0536 40.9491 42.6461C45.0601 38.9972 47.7359 34.5511 48.3383 29.0068C48.5155 27.3772 48.5155 25.7298 48.6041 23.9762C45.6272 23.7991 44.1032 21.7266 42.4907 19.7781C40.7542 17.7057 38.9999 15.6332 36.7671 14.0567C36.6431 13.9681 36.5191 13.8973 36.4836 13.8796C35.5976 14.5881 34.8179 15.3675 33.8965 15.9166C32.2662 16.9086 30.5474 17.1211 28.8286 16.0406C27.8185 15.4029 27.8008 14.8892 28.7754 14.2161C31.4688 12.3562 34.5167 11.2757 37.5645 10.2483C37.7595 10.1775 38.0607 10.3192 38.2556 10.4432C40.7187 12.1082 42.597 14.3755 44.5463 16.5897C45.2019 17.3337 45.9816 17.9891 46.7613 18.5736C47.8953 19.4239 49.118 19.3353 50.3407 18.7508C50.6774 18.5913 51.0495 18.4673 51.6343 18.2371Z" fill="white"/>
<path d="M11.6907 14.6134C10.8221 16.4121 9.75848 17.8934 9.3685 19.551C8.96079 21.2615 8.37582 22.2137 6.53228 22.5664C4.79509 22.9015 4.01513 23.8361 3.67833 24.9647C5.30916 24.7531 6.97544 24.5414 8.6949 24.3298C8.85444 25.3174 8.97852 26.0756 9.08488 26.8163C9.17351 27.3453 8.92534 27.504 8.37582 27.6627C7.29451 27.9625 6.23093 28.4033 5.22053 28.8971C4.6001 29.2145 4.15694 29.7788 4.17467 30.731C4.54692 30.5723 4.81282 30.4136 5.11417 30.3431C6.33729 30.0962 7.56041 29.867 8.78353 29.7083C9.27987 29.6377 9.88257 29.7788 9.82939 30.4489C9.81166 30.784 9.51031 31.2072 9.20896 31.4188C8.34037 32.0536 7.40087 32.6003 6.4791 33.1998C5.55733 33.7994 4.97236 34.6458 4.63556 35.845C6.03594 35.4394 7.31224 35.0514 8.64172 34.6635C8.53536 37.0088 6.37274 38.7193 3.90877 38.1903C2.82746 37.9611 2.26022 37.1146 1.85251 36.18C0.115327 32.1947 -0.310106 28.0154 0.203959 23.7126C0.381223 22.3019 0.647118 20.8912 0.930741 19.4981C1.16118 18.3695 1.3739 18.2989 2.3843 18.7751C3.19972 19.163 3.85559 19.2336 4.54692 18.4753C5.91185 16.994 7.56041 15.8654 9.45713 15.1953C10.2371 14.9485 10.9639 14.8074 11.6907 14.6134Z" fill="white"/>
<path d="M27.7865 0C30.2228 0.12324 32.4813 0.492962 34.6686 1.2148C41.2128 3.38031 46.2454 7.39442 49.6597 13.3628C49.6775 13.3804 49.6953 13.4156 49.6953 13.4332C49.8198 14.0318 50.6911 14.56 50.0154 15.229C49.0551 16.1797 47.9881 16.3734 47.099 15.5811C46.0498 14.648 45.1606 13.5564 44.2359 12.5001C40.0391 7.69372 34.8464 4.66553 28.4623 3.71482C27.9644 3.64439 27.7332 3.48594 27.7688 2.94016C27.8043 2.00706 27.7865 1.07395 27.7865 0Z" fill="white"/>
<path d="M25.1348 13.1732C24.8017 13.5313 24.6089 13.782 24.3809 13.9968C22.7329 15.4292 21.5057 17.166 20.6291 19.1893C20.4888 19.5295 20.1382 19.9055 19.805 19.995C16.2811 21.0335 13.809 23.2895 12.1785 26.6019C12.1435 26.6914 12.0208 26.7452 11.8454 26.8884C11.3019 24.8114 11.2318 22.824 11.7578 20.8365C12.8272 16.8258 15.1064 13.8715 19.1038 12.6003C21.1375 11.9378 23.1011 12.3675 25.1348 13.1732Z" fill="white"/>
</svg>
