<svg width="298" height="299" viewBox="0 0 298 299" fill="none" xmlns="http://www.w3.org/2000/svg">
<path d="M106.249 168.419C104.85 175.31 103.151 182.101 102.151 188.992C100.052 204.673 96.7544 220.153 83.9621 230.739C77.1662 236.332 68.8712 240.028 61.0758 244.422C56.7784 246.819 52.2811 249.116 47.7838 251.014C46.0848 251.713 43.0866 252.012 42.0872 251.014C37.0902 245.72 32.5929 239.928 27.7958 234.335C25.3972 231.538 26.4966 230.839 29.4948 229.641C36.5905 226.844 43.9861 224.248 50.3823 220.053C61.3757 212.862 65.9729 201.277 69.0711 188.893C70.9699 181.202 72.469 173.312 75.4672 166.022C83.5624 146.746 96.8544 132.764 117.542 126.771C123.838 124.974 129.935 125.673 135.531 128.07C151.222 134.861 163.015 130.766 175.307 116.385C177.106 114.287 178.805 112.09 180.104 109.493C174.408 112.39 168.811 115.286 163.115 118.082C155.619 121.878 148.723 120.779 142.527 115.186C141.927 114.587 141.328 114.088 140.628 113.588C132.733 107.596 133.033 108.694 139.729 100.505C142.927 96.7096 146.325 93.0143 149.923 89.6186C150.722 88.8196 153.52 88.7197 154.22 89.5187C166.513 102.802 182.303 101.803 196.195 93.214C197.494 92.415 198.693 91.5162 199.893 90.7172C206.189 86.2229 206.189 86.2229 211.186 92.6148C213.784 95.9106 216.283 99.2064 218.881 102.402C221.48 105.698 220.98 107.696 216.982 109.393C210.086 112.09 203.391 115.286 195.095 118.881C203.091 124.674 210.087 129.668 217.782 135.161C217.782 130.267 217.382 126.472 217.982 122.776C218.282 120.779 220.18 119.081 221.38 117.184C222.879 118.282 224.678 119.081 225.777 120.38C230.174 125.773 234.572 131.166 238.669 136.859C243.067 142.851 242.567 146.047 236.071 148.244C234.972 148.644 232.473 150.541 232.173 151.74C231.573 154.536 238.669 158.231 230.174 160.229C230.874 163.125 235.072 165.822 230.874 168.818C230.474 169.118 230.774 170.915 231.174 171.814C232.073 173.812 233.373 175.51 234.172 177.507C236.671 183.4 234.072 188.593 227.776 188.193C216.383 187.594 204.89 186.695 193.896 183.999C185.401 181.901 177.606 177.108 169.511 173.312C167.912 172.613 166.613 171.415 164.514 170.017C166.113 178.306 170.61 184.099 176.007 188.893C180.904 193.287 183.403 198.281 184.802 204.772C188.3 221.152 197.394 234.235 210.086 245.221C219.981 253.71 230.974 259.203 243.367 262.199C239.769 277.48 179.805 302.448 156.918 298.154C156.918 292.461 156.718 286.668 157.118 280.976C157.218 279.777 159.217 278.279 160.616 277.48C170.31 271.887 172.609 259.203 165.213 249.516C164.114 252.711 163.315 255.907 162.015 258.904C158.417 267.293 152.421 270.189 143.626 267.892C138.829 266.594 134.132 265.096 128.535 263.498C141.128 251.713 144.026 238.13 139.329 223.549C136.431 231.738 134.632 241.126 130.034 248.916C125.437 256.806 118.042 263.198 111.646 270.489C121.34 273.186 131.534 275.982 141.927 278.778C141.927 284.172 141.827 289.565 141.927 294.858C142.027 298.154 140.528 299.252 137.33 298.953C106.748 296.556 79.9645 285.07 56.0788 266.095C54.3799 264.796 53.2805 262.799 51.3817 260.601C58.4774 259.403 64.5737 258.704 70.4702 257.306C89.5588 252.712 103.95 242.325 108.348 222.25C110.146 213.961 109.947 205.172 109.747 196.583C109.547 187.295 108.347 178.106 107.648 168.818C107.248 168.718 106.748 168.618 106.249 168.419ZM165.513 130.467C164.014 133.862 162.615 137.158 161.016 140.554C157.918 147.345 156.519 148.444 149.323 147.845C143.127 147.345 139.729 150.841 137.23 155.535C134.532 160.628 133.832 165.922 137.63 171.415C139.729 160.429 141.428 159.53 152.321 159.33C155.619 159.23 159.917 156.534 162.015 153.737C167.012 147.046 167.412 138.956 165.513 130.467Z" fill="#1E3954"/>
<path d="M128.589 28.8668C163.349 31.2756 187.122 37.2974 197.011 46.5309C195.213 47.3338 193.615 47.936 192.117 48.6385C181.229 53.456 170.341 58.1731 159.554 63.3921C156.957 64.6968 155.059 65.0982 152.262 63.7935C130.587 53.1549 108.612 53.6567 86.3368 62.4888C79.6444 65.0982 72.2529 65.9012 65.2608 67.7077C52.3755 71.0197 41.0883 77.443 31.2994 86.6765C25.506 92.0962 21.5106 92.2969 15.6173 86.9776C14.7183 86.1747 14.7183 83.5652 15.3176 82.2605C21.6104 68.5106 30.2007 56.5673 40.489 45.8284C61.8647 23.3468 87.5355 8.69368 117.901 2.67184C123.694 1.46747 129.688 0.965651 135.581 0.162739C140.176 -0.539809 142.673 0.96565 141.874 5.98385C141.874 6.28494 141.874 6.6864 141.874 6.98749C141.874 23.8486 139.676 23.2465 128.589 28.8668Z" fill="#1E3954"/>
<path d="M292.486 103.079C294.292 115.393 296.802 126.907 297.605 138.621C298.91 157.644 297.003 176.466 291.582 194.888C285.861 214.011 276.024 230.831 262.674 245.548C260.466 247.951 257.655 249.854 254.845 251.756C253.841 252.457 252.235 252.957 251.231 252.657C244.907 250.655 238.584 248.552 232.36 246.249C228.847 244.948 229.349 243.346 231.959 241.043C255.246 220.419 270.403 195.289 273.816 163.951C274.819 154.74 274.819 145.429 275.321 135.517C258.458 134.516 249.826 122.802 240.691 111.789C230.854 100.075 220.917 88.3611 208.27 79.4505C207.567 78.9499 206.865 78.5494 206.664 78.4493C201.645 82.454 197.228 86.8593 192.009 89.963C182.774 95.5697 173.038 96.7711 163.301 90.6638C157.58 87.0595 157.479 84.1561 163 80.3515C178.257 69.839 195.522 63.7317 212.787 57.9248C213.891 57.5243 215.597 58.3253 216.701 59.0261C230.654 68.4373 241.294 81.2526 252.335 93.7675C256.049 97.9725 260.466 101.677 264.882 104.981C271.306 109.787 278.232 109.286 285.158 105.982C287.065 105.081 289.173 104.38 292.486 103.079Z" fill="#1E3954"/>
<path d="M66.2222 82.5968C61.302 92.7633 55.2773 101.136 53.0682 110.505C50.7587 120.173 47.4451 125.555 37.0022 127.549C27.1618 129.442 22.7437 134.725 20.8358 141.104C30.0738 139.908 39.5125 138.712 49.2525 137.516C50.1562 143.097 50.8591 147.383 51.4616 151.569C51.9637 154.56 50.5579 155.457 47.4451 156.354C41.32 158.048 35.2952 160.54 29.5717 163.331C26.0573 165.125 23.547 168.314 23.6474 173.697C25.756 172.8 27.2622 171.902 28.9692 171.504C35.8977 170.108 42.8261 168.813 49.7546 167.916C52.5661 167.517 55.9802 168.314 55.6789 172.102C55.5785 173.996 53.8715 176.388 52.1645 177.584C47.2443 181.172 41.9224 184.262 36.701 187.651C31.4795 191.039 28.1659 195.824 26.2581 202.601C34.1907 200.309 41.4204 198.116 48.9513 195.923C48.3488 209.18 36.0985 218.848 22.1412 215.858C16.016 214.562 12.8028 209.778 10.4933 204.495C0.652932 181.969 -1.75696 158.347 1.15499 134.027C2.15912 126.054 3.6653 118.08 5.2719 110.206C6.57726 103.827 7.78221 103.428 13.5057 106.119C18.1247 108.312 21.8399 108.711 25.756 104.425C33.4878 96.0524 42.8261 89.6734 53.5703 85.8859C57.9884 84.4905 62.1053 83.6931 66.2222 82.5968Z" fill="#1E3954"/>
<path d="M157.399 0C171.199 0.696576 183.992 2.78631 196.383 6.86626C233.453 19.1061 261.96 41.7946 281.301 75.5288C281.402 75.6283 281.502 75.8273 281.502 75.9268C282.208 79.3102 287.144 82.2955 283.316 86.077C277.876 91.4505 271.832 92.5452 266.795 88.0672C260.852 82.7931 255.815 76.6234 250.577 70.6528C226.804 43.4863 197.39 26.3704 161.227 20.9968C158.406 20.5988 157.097 19.7032 157.298 16.6183C157.499 11.3442 157.399 6.07017 157.399 0Z" fill="#1E3954"/>
<path d="M142.378 74.4572C140.491 76.4812 139.398 77.898 138.107 79.1124C128.772 87.2086 121.82 97.0252 116.855 108.461C116.06 110.384 114.074 112.509 112.187 113.015C92.225 118.885 78.222 131.636 68.986 150.359C68.7873 150.865 68.0922 151.168 67.099 151.978C64.0203 140.238 63.6231 129.005 66.6025 117.772C72.6605 95.1023 85.5711 78.404 108.214 71.2187C119.735 67.4742 130.858 69.9031 142.378 74.4572Z" fill="#1E3954"/>
</svg>
