<svg width="198" height="66" viewBox="0 0 198 66" fill="none" xmlns="http://www.w3.org/2000/svg">
<path d="M22.8034 37.0488C22.504 38.5268 22.1404 39.9834 21.9265 41.4614C21.4774 44.8244 20.7716 48.1446 18.0339 50.4152C16.5795 51.6147 14.8043 52.4073 13.136 53.3498C12.2164 53.8639 11.2539 54.3566 10.2914 54.7635C9.92785 54.9135 9.28621 54.9777 9.07233 54.7635C8.00293 53.6283 7.04047 52.3859 6.01385 51.1863C5.50053 50.5865 5.7358 50.4366 6.37744 50.1796C7.89599 49.5798 9.4787 49.0228 10.8475 48.1232C13.2002 46.5809 14.1841 44.0961 14.8471 41.44C15.2535 39.7906 15.5743 38.0984 16.2159 36.5347C17.9483 32.4005 20.7929 29.4016 25.2203 28.1164C26.5677 27.7308 27.8724 27.8808 29.0701 28.3949C32.428 29.8515 34.9518 28.9732 37.5825 25.8887C37.9675 25.4388 38.3311 24.9676 38.6091 24.4106C37.39 25.0318 36.1923 25.653 34.9732 26.2528C33.3691 27.0668 31.8933 26.8312 30.5673 25.6316C30.4389 25.5031 30.3106 25.396 30.1609 25.2889C28.4712 24.0037 28.5354 24.2393 29.9684 22.4828C30.6528 21.6688 31.38 20.8763 32.15 20.148C32.3211 19.9766 32.9199 19.9552 33.0696 20.1265C35.7004 22.9755 39.0797 22.7613 42.0526 20.9191C42.3306 20.7477 42.5873 20.555 42.844 20.3836C44.1914 19.4197 44.1914 19.4197 45.2608 20.7906C45.8169 21.4975 46.3516 22.2043 46.9077 22.8898C47.4638 23.5967 47.3568 24.0251 46.5013 24.3892C45.0255 24.9676 43.5925 25.653 41.8173 26.4242C43.5284 27.6666 45.0255 28.7376 46.6724 29.9157C46.6724 28.8661 46.5868 28.0521 46.7152 27.2596C46.7793 26.8312 47.1857 26.467 47.4424 26.06C47.7632 26.2957 48.1482 26.467 48.3834 26.7455C49.3245 27.9022 50.2656 29.0589 51.1425 30.2799C52.0836 31.5651 51.9766 32.2506 50.5864 32.7218C50.3511 32.8075 49.8164 33.2145 49.7522 33.4715C49.6239 34.0713 51.1425 34.8638 49.3245 35.2922C49.4742 35.9134 50.3725 36.4918 49.4742 37.1344C49.3887 37.1987 49.4528 37.5843 49.5384 37.7771C49.7309 38.2055 50.0089 38.5696 50.18 38.998C50.7147 40.2618 50.1586 41.3757 48.8112 41.29C46.373 41.1615 43.9133 40.9687 41.5607 40.3904C39.7427 39.9405 38.0744 38.9124 36.342 38.0984C35.9998 37.9484 35.7218 37.6914 35.2726 37.3915C35.6148 39.1694 36.5773 40.4118 37.7322 41.44C38.7802 42.3825 39.3149 43.4535 39.6144 44.8458C40.3629 48.3588 42.3092 51.1649 45.0255 53.5212C47.1429 55.3419 49.4956 56.52 52.1477 57.1626C51.3778 60.44 38.545 65.7951 33.6471 64.874C33.6471 63.6531 33.6043 62.4107 33.6899 61.1897C33.7113 60.9327 34.139 60.6114 34.4385 60.44C36.5131 59.2404 37.005 56.52 35.4223 54.4422C35.1871 55.1277 35.016 55.8131 34.7379 56.4558C33.9679 58.2551 32.6847 58.8763 30.8025 58.3836C29.7759 58.1051 28.7707 57.7838 27.5729 57.4411C30.2678 54.9135 30.8881 52.0003 29.8828 48.8729C29.2626 50.6294 28.8776 52.6429 27.8938 54.3137C26.9099 56.0059 25.3272 57.3769 23.9584 58.9405C26.033 59.5189 28.2146 60.1187 30.4389 60.7185C30.4389 61.8752 30.4175 63.0319 30.4389 64.1672C30.4603 64.874 30.1395 65.1097 29.4551 65.0454C22.9104 64.5313 17.1784 62.0679 12.0666 57.998C11.703 57.7196 11.4678 57.2912 11.0614 56.8199C12.58 56.5629 13.8846 56.4129 15.1465 56.113C19.2316 55.1277 22.3115 52.9 23.2526 48.5944C23.6375 46.8165 23.5948 44.9315 23.552 43.0894C23.5092 41.0972 23.2526 39.1266 23.1028 37.1344C23.0173 37.113 22.9104 37.0916 22.8034 37.0488ZM35.4865 28.909C35.1657 29.6373 34.8662 30.3441 34.524 31.0724C33.861 32.529 33.5616 32.7647 32.0216 32.6361C30.6956 32.529 29.9684 33.2788 29.4337 34.2855C28.8562 35.378 28.7065 36.5133 29.5192 37.6914C29.9684 35.3351 30.332 35.1423 32.6633 35.0995C33.3691 35.0781 34.2888 34.4997 34.7379 33.8999C35.8073 32.4648 35.8929 30.7297 35.4865 28.909Z" fill="#1E3954"/>
<path d="M27.5844 7.11804C35.0234 7.63466 40.111 8.92621 42.2273 10.9066C41.8425 11.0788 41.5005 11.2079 41.1798 11.3586C38.8498 12.3919 36.5198 13.4036 34.2111 14.5229C33.6553 14.8027 33.2491 14.8889 32.6506 14.609C28.0119 12.3273 23.3091 12.4349 18.5421 14.3292C17.1099 14.8889 15.528 15.0611 14.0317 15.4485C11.2741 16.1589 8.85855 17.5365 6.76366 19.5169C5.52382 20.6793 4.66876 20.7223 3.40755 19.5815C3.21516 19.4093 3.21516 18.8496 3.34342 18.5698C4.69014 15.6207 6.52852 13.0592 8.7303 10.7559C13.3049 5.93412 18.7986 2.79135 25.2971 1.49981C26.5369 1.2415 27.8195 1.13387 29.0807 0.961662C30.064 0.810981 30.5985 1.13387 30.4275 2.21016C30.4275 2.27474 30.4275 2.36084 30.4275 2.42542C30.4275 6.04175 29.9572 5.9126 27.5844 7.11804Z" fill="#1E3954"/>
<path d="M62.6597 23.0348C63.0463 25.6761 63.5834 28.1455 63.7552 30.6579C64.0345 34.7378 63.6263 38.7748 62.4663 42.7259C61.2419 46.8273 59.1367 50.4348 56.2797 53.5914C55.8071 54.1067 55.2056 54.5147 54.6041 54.9227C54.3893 55.073 54.0456 55.1804 53.8308 55.116C52.4775 54.6865 51.1241 54.2356 49.7923 53.7417C49.0405 53.4625 49.1479 53.119 49.7064 52.6251C54.6901 48.2016 57.9337 42.8118 58.6641 36.0906C58.8789 34.1151 58.8789 32.1181 58.9863 29.9922C55.3775 29.7775 53.5301 27.2651 51.5753 24.903C49.4701 22.3906 47.3434 19.8783 44.6368 17.9671C44.4864 17.8598 44.336 17.7739 44.2931 17.7524C43.219 18.6113 42.2738 19.5562 41.1568 20.2218C39.1805 21.4243 37.0968 21.682 35.0131 20.3721C33.7887 19.5991 33.7672 18.9764 34.9487 18.1604C38.2138 15.9057 41.9086 14.5958 45.6034 13.3504C45.8397 13.2645 46.2049 13.4363 46.4412 13.5866C49.4271 15.6051 51.7041 18.3537 54.0671 21.0378C54.8619 21.9397 55.8071 22.7342 56.7523 23.4428C58.1271 24.4736 59.6093 24.3662 61.0915 23.6576C61.4997 23.4643 61.9508 23.314 62.6597 23.0348Z" fill="#1E3954"/>
<path d="M14.2374 18.642C13.1844 20.8225 11.8951 22.6181 11.4223 24.6276C10.9281 26.7012 10.2189 27.8556 7.98408 28.2831C5.87815 28.6893 4.93263 29.8223 4.52434 31.1904C6.50134 30.9339 8.52131 30.6774 10.6057 30.4209C10.7991 31.618 10.9496 32.5372 11.0785 33.4351C11.186 34.0764 10.8851 34.2688 10.2189 34.4612C8.90811 34.8246 7.61877 35.359 6.39389 35.9576C5.64177 36.3424 5.10455 37.0264 5.12604 38.1808C5.57731 37.9884 5.89964 37.796 6.26496 37.7105C7.7477 37.4112 9.23045 37.1333 10.7132 36.9409C11.3149 36.8554 12.0455 37.0264 11.981 37.8388C11.9596 38.2449 11.5942 38.758 11.2289 39.0145C10.176 39.7841 9.03705 40.4468 7.91961 41.1736C6.80218 41.9005 6.09304 42.9266 5.68475 44.3802C7.38239 43.8885 8.9296 43.4182 10.5413 42.9479C10.4123 45.7911 7.79068 47.8647 4.8037 47.2234C3.49287 46.9455 2.80522 45.9194 2.31097 44.7864C0.20504 39.9551 -0.310697 34.8887 0.312486 29.6726C0.527376 27.9625 0.849712 26.2523 1.19354 24.5635C1.47289 23.1953 1.73076 23.1098 2.95564 23.687C3.94414 24.1573 4.73923 24.2428 5.57731 23.3236C7.23196 21.5279 9.23045 20.1598 11.5298 19.3474C12.4753 19.0481 13.3563 18.8771 14.2374 18.642Z" fill="#1E3954"/>
<path d="M33.7499 0.926758C36.7033 1.07616 39.4411 1.52436 42.0927 2.39941C50.026 5.02458 56.1269 9.89075 60.266 17.126C60.2875 17.1473 60.3091 17.19 60.3091 17.2113C60.46 17.937 61.5163 18.5773 60.6971 19.3883C59.533 20.5408 58.2395 20.7756 57.1616 19.8152C55.8897 18.684 54.8118 17.3607 53.6908 16.0802C48.6032 10.2536 42.3083 6.58261 34.5691 5.4301C33.9654 5.34473 33.6852 5.15264 33.7283 4.49101C33.7714 3.35984 33.7499 2.22867 33.7499 0.926758Z" fill="#1E3954"/>
<path d="M30.5353 16.8962C30.1314 17.3303 29.8977 17.6342 29.6214 17.8946C27.6235 19.6311 26.1358 21.7365 25.0731 24.1892C24.9031 24.6016 24.478 25.0575 24.0742 25.166C19.8022 26.4249 16.8054 29.1598 14.8288 33.1753C14.7863 33.2839 14.6375 33.349 14.425 33.5226C13.7661 31.0048 13.6811 28.5955 14.3187 26.1861C15.6152 21.3241 18.3782 17.7427 23.224 16.2016C25.6894 15.3985 28.0698 15.9194 30.5353 16.8962Z" fill="#1E3954"/>
<path d="M149.475 29.8614C150.75 27.4876 151.884 25.4327 152.982 23.3777C154.364 20.7559 154.364 20.7559 157.588 21.0393C157.588 29.0465 157.588 37.0892 157.588 45.1673C157.269 45.2382 157.057 45.309 156.844 45.309C153.868 45.4862 153.797 45.4507 153.797 42.4037C153.797 38.6127 153.797 34.7862 153.797 30.5346C152.557 32.9439 151.53 34.9634 150.431 36.9121C150.219 37.3018 149.723 37.5852 149.368 37.9041C149.085 37.5852 148.731 37.2664 148.518 36.9121C147.49 34.9988 146.534 33.0856 145.294 30.7118C145.294 34.6091 145.294 38.0458 145.294 41.4471C145.294 41.6243 145.294 41.8014 145.294 41.9786C145.365 45.5925 145.152 45.7696 141.396 45.1319C141.396 37.1601 141.396 29.1528 141.396 21.181C143.699 20.189 144.373 20.4016 145.471 22.4565C146.711 24.8303 148.022 27.2042 149.475 29.8614Z" fill="#1E3954"/>
<path d="M130.413 35.3532C132.078 38.6128 133.708 41.8015 135.409 45.0965C131.512 46.0177 130.945 45.7697 129.563 42.6873C128.606 40.5969 127.685 38.5065 126.622 36.487C126.374 36.0264 125.736 35.7429 125.276 35.3886C125.099 35.4949 124.957 35.6012 124.78 35.7075C124.78 38.8608 124.78 41.9787 124.78 45.3445C123.327 45.4154 122.123 45.4862 120.741 45.5217C120.741 37.231 120.741 29.082 120.741 20.5079C123.859 20.7205 126.87 20.6851 129.775 21.1457C132.326 21.5708 134.488 24.3344 134.771 26.9208C135.09 30.0741 134.594 32.9085 131.547 34.68C131.157 34.8926 130.838 35.1052 130.413 35.3532ZM124.638 31.881C126.941 31.9873 129.173 32.5542 130.484 30.145C131.264 28.7632 131.264 27.2751 130.342 25.9642C128.89 23.8384 126.728 24.5824 124.603 24.5824C124.638 27.0271 124.638 29.3655 124.638 31.881Z" fill="#1E3954"/>
<path d="M93.176 45.3091C91.9713 45.3091 90.9084 45.3091 89.5621 45.3091C89.5621 41.7661 89.5621 38.223 89.5621 34.5737C87.1174 34.5737 84.9561 34.5737 82.5823 34.5737C82.5823 37.479 82.476 40.4197 82.6177 43.325C82.724 45.0256 82.0863 45.4154 80.5274 45.3799C79.0747 45.3799 78.5433 44.8839 78.6141 43.4313C78.7204 41.7306 78.685 40.03 78.6141 38.2939C78.5433 36.2389 79.3582 33.9714 76.5946 32.4479C78.933 31.7393 78.6141 30.2512 78.6141 28.8695C78.6141 26.283 78.6141 23.6966 78.6141 20.8268C79.677 20.8268 80.6691 20.7205 81.5903 20.8977C81.9446 20.9685 82.4052 21.6417 82.4406 22.0668C82.5469 23.8384 82.4406 25.6099 82.476 27.3814C82.5469 31.4204 82.0509 30.7118 86.019 30.8181C87.082 30.8535 88.1094 30.8181 89.3849 30.8181C89.3849 27.4877 89.3849 24.2635 89.3849 20.8622C90.7313 20.8622 91.865 20.8622 93.176 20.8622C93.176 28.9403 93.176 37.0538 93.176 45.3091Z" fill="#1E3954"/>
<path d="M104.62 41.3763C107.95 41.3763 111.104 41.3763 114.328 41.3763C114.328 42.7935 114.328 43.9627 114.328 45.2382C110.076 45.2382 105.86 45.2736 101.644 45.1673C101.325 45.1673 100.794 44.317 100.794 43.821C100.723 41.8369 100.829 39.8174 100.794 37.8333C100.758 35.9555 101.29 33.9005 99.8369 32.9439C100.227 31.5975 100.723 30.6409 100.794 29.6489C100.9 26.779 100.829 23.8738 100.829 20.8622C105.329 20.8622 109.722 20.8622 114.151 20.8622C114.151 22.0314 114.151 23.1297 114.151 24.4406C110.962 24.4406 107.88 24.4406 104.691 24.4406C104.691 26.6373 104.691 28.586 104.691 30.7826C106.958 30.7826 109.084 30.7826 111.245 30.7826C111.316 30.9598 111.387 31.1369 111.458 31.3141C110.076 32.1644 108.765 33.3336 107.277 33.8296C104.903 34.6091 104.301 36.0618 104.62 38.2939C104.726 39.215 104.62 40.1717 104.62 41.3763Z" fill="#1E3954"/>
<path d="M164.001 32.9439C164.462 31.6684 164.958 30.8889 164.993 30.1094C165.135 27.1687 165.099 24.228 165.135 21.2873C165.135 21.181 165.241 21.0747 165.312 20.8976C169.422 20.8976 173.567 20.8976 177.819 20.8976C177.819 22.1376 177.819 23.2006 177.819 24.476C174.807 24.476 171.902 24.476 168.961 24.476C168.961 26.6727 168.961 28.6922 168.961 30.8889C171.3 30.8889 173.425 30.8889 175.587 30.8889C175.658 31.0661 175.728 31.2786 175.835 31.4558C174.028 32.5187 172.256 33.7233 170.343 34.5737C169.138 35.1051 168.89 35.8137 168.855 36.9829C168.784 41.4825 168.749 41.4825 173.107 41.4117C174.453 41.3763 175.799 41.3054 177.146 41.3763C178.882 41.4471 178.244 42.8643 178.35 43.7855C178.457 44.6358 178.35 45.4153 177.11 45.3799C173.177 45.3444 169.245 45.3444 165.064 45.3444C165.064 43.0415 165.135 40.8094 165.064 38.6127C164.958 36.5223 165.879 34.2193 164.001 32.9439Z" fill="#1E3954"/>
<path d="M182.708 41.0928C183.665 40.3487 184.48 39.711 185.33 39.0378C186.393 39.7464 187.314 40.5259 188.412 41.0928C190.29 42.014 192.522 41.3408 193.302 39.7464C194.117 38.0812 193.443 36.2743 191.459 35.2114C190.396 34.609 189.192 34.2193 188.094 33.7233C184.125 31.9163 182.602 28.5505 183.984 24.8303C185.295 21.3227 189.121 19.5512 192.983 20.8267C194.542 21.3581 195.888 22.421 197.553 23.3422C196.242 24.4051 195.286 25.1846 194.577 25.7515C193.125 25.1846 191.92 24.476 190.609 24.228C189.156 23.9445 187.916 24.724 187.527 26.2475C187.137 27.7356 187.527 29.0819 188.979 29.8614C190.29 30.5346 191.637 31.066 192.983 31.7038C195.959 33.121 197.695 35.3531 197.624 38.7544C197.518 41.766 195.817 44.0689 193.089 45.061C190.007 46.1593 186.322 45.3444 184.196 42.9706C183.7 42.4037 183.275 41.8368 182.708 41.0928Z" fill="#1E3954"/>
</svg>
